<?xml version="1.0" encoding="UTF-8"?>
<mxfile host="app.diagrams.net" modified="2025-10-23T11:04:39.261497Z" agent="python-user-visible" version="22.1.0" type="device">

  <diagram id="Endpoint_Security_v1" name="Endpoint_Security_v1">
    <mxGraphModel dx="1280" dy="720" grid="1" gridSize="10" guides="1" tooltips="1" connect="1" arrows="1" fold="1" page="1" pageScale="1" pageWidth="1920" pageHeight="1080" background="#ffffff">
      <root>
        <mxCell id="0"/><mxCell id="1" parent="0"/>
        <mxCell id="zoneEP" value="Endpoint Security &amp; Management" style="rounded=1;whiteSpace=wrap;html=1;strokeColor:#2e7d32;fillColor:#e8f5e9;" vertex="1" parent="1"><mxGeometry x="40" y="40" width="860" height="420" as="geometry"/></mxCell><mxCell id="laptop" value="Managed Laptop" style="shape=ellipse;whiteSpace=wrap;html=1;strokeColor:#666;fillColor:#fff;" vertex="1" parent="1"><mxGeometry x="80" y="80" width="180" height="60" as="geometry"/></mxCell><mxCell id="edr" value="EDR Agent" style="shape=process;whiteSpace=wrap;html=1;strokeColor:#2e7d32;fillColor:#d9f1dc;" vertex="1" parent="1"><mxGeometry x="360" y="80" width="220" height="60" as="geometry"/></mxCell><mxCell id="mdm" value="MDM/Compliance" style="shape=process;whiteSpace=wrap;html=1;strokeColor:#2e7d32;fillColor:#d9f1dc;" vertex="1" parent="1"><mxGeometry x="360" y="160" width="220" height="60" as="geometry"/></mxCell><mxCell id="enc" value="Full‑Disk Encryption" style="shape=process;whiteSpace=wrap;html=1;strokeColor:#2e7d32;fillColor:#d9f1dc;" vertex="1" parent="1"><mxGeometry x="360" y="240" width="220" height="60" as="geometry"/></mxCell><mxCell id="edrCloud" value="EDR Cloud Console" style="shape=process;whiteSpace=wrap;html=1;strokeColor:#ad1457;fillColor:#fce4ec;" vertex="1" parent="1"><mxGeometry x="640" y="80" width="220" height="60" as="geometry"/></mxCell><mxCell id="wipe" value="Remote Wipe/Lock" style="shape=process;whiteSpace=wrap;html=1;strokeColor:#ad1457;fillColor:#fce4ec;" vertex="1" parent="1"><mxGeometry x="640" y="160" width="220" height="60" as="geometry"/></mxCell><mxCell id="ep1" edge="1" parent="1" source="laptop" target="edr" value="3" style="dashed=1;endArrow=classic;strokeColor=#2e7d32;"><mxGeometry relative="1" as="geometry"/></mxCell><mxCell id="ep2" edge="1" parent="1" source="laptop" target="mdm" value="5" style="dashed=1;endArrow=classic;strokeColor=#2e7d32;"><mxGeometry relative="1" as="geometry"/></mxCell><mxCell id="ep3" edge="1" parent="1" source="laptop" target="enc" value="—" style="endArrow=classic;strokeColor=#2e7d32;"><mxGeometry relative="1" as="geometry"/></mxCell><mxCell id="ep4" edge="1" parent="1" source="edr" target="edrCloud" value="8" style="dashed=1;dashPattern=1 4;endArrow=classic;strokeColor=#ad1457;"><mxGeometry relative="1" as="geometry"/></mxCell><mxCell id="ep5" edge="1" parent="1" source="mdm" target="wipe" value="9" style="dashed=1;dashPattern=1 4;endArrow=classic;strokeColor=#ad1457;"><mxGeometry relative="1" as="geometry"/></mxCell>
      </root>
    </mxGraphModel>
  </diagram>

</mxfile>
